<svg width="125" height="125" viewBox="0 0 125 125" fill="none" xmlns="http://www.w3.org/2000/svg">
<rect width="125" height="125" rx="21" fill="white"/>
<path d="M36.24 71.15V44.2136L63.673 24.8975C64.0669 24.6749 64.4093 24.3496 64.632 23.9386C64.8546 23.5618 64.9916 23.0995 64.9916 22.62C64.9916 21.9008 64.7005 21.2501 64.221 20.7706C63.7415 20.2911 63.0908 20 62.3716 20C62.0633 20 61.7551 20.0514 61.464 20.1541C61.19 20.2569 60.916 20.411 60.6934 20.6165L31 41.508V71.15C31 72.4515 31.1884 73.8385 31.5309 75.2427C31.8733 76.6983 32.3871 78.1881 33.0378 79.6779C33.6714 81.1506 34.4591 82.6061 35.3496 84.0274C36.24 85.4316 37.2332 86.7844 38.312 88.0688C38.5689 88.3428 38.8086 88.6339 39.0655 88.9079C39.3052 89.1647 39.5621 89.4387 39.8361 89.7127C40.0758 89.9696 40.3498 90.2435 40.6409 90.5175C40.8978 90.7573 41.1547 90.997 41.4115 91.2367L41.4971 91.3052C45.3501 94.0622 48.8948 96.5624 52.5251 99.131C54.9568 100.843 57.4398 102.607 60.5906 104.85C60.8304 105.09 61.1215 105.279 61.4297 105.398C61.738 105.535 62.0805 105.604 62.4229 105.604C62.7825 105.604 63.125 105.535 63.4333 105.398C63.7415 105.279 64.0326 105.09 64.2552 104.85L81.1055 93.0348C82.8179 91.8361 84.4447 90.3463 85.9345 88.6852C87.4757 86.9557 88.8627 85.0378 90.0101 83.0685C91.1916 81.0307 92.1506 78.9416 92.8013 76.8867C93.4349 74.9002 93.7774 72.9481 93.7774 71.15L94 34.6241C94 33.7679 93.6746 33.0144 93.178 32.4836C92.6643 31.9356 91.9622 31.6273 91.1745 31.6102H91.1574C90.7978 31.6102 90.4724 31.6787 90.147 31.7986C89.8388 31.9356 89.5306 32.1068 89.2566 32.3466L59.8029 53.4265V89.5757C59.8029 90.312 60.1112 90.9628 60.5735 91.4422C61.053 91.9217 61.7037 92.2128 62.4229 92.2128C63.1593 92.2128 63.81 91.9217 64.2895 91.4422C64.7518 90.9628 65.0429 90.312 65.0429 89.5757V56.1321L88.5374 39.6072V71.15C88.5374 72.4857 88.2634 73.9584 87.7497 75.4996C87.2359 77.1093 86.4653 78.7703 85.5064 80.4142C84.5303 82.0924 83.383 83.685 82.0987 85.1405C80.8657 86.5276 79.5129 87.7605 78.1087 88.7366L62.4401 99.7646L44.8021 87.2297C44.5795 87.0242 44.3569 86.8187 44.1514 86.6303C43.9459 86.442 43.7404 86.2365 43.5521 86.0481C43.3466 85.8255 43.1239 85.6029 42.9185 85.3631C42.6958 85.1234 42.4904 84.8837 42.2849 84.6439C41.3773 83.5822 40.5382 82.4349 39.7847 81.2191C39.0313 80.0546 38.3634 78.7874 37.8326 77.5545C37.3188 76.4072 36.9079 75.2599 36.651 74.1468C36.377 73.1022 36.24 72.0919 36.24 71.15Z" fill="#5C7EF4"/>
<path d="M45.4187 47.5876L45.5043 80.8257V81.1168H45.5557C45.6584 81.6991 45.9324 82.2128 46.3434 82.5724C46.8058 83.0176 47.4394 83.2916 48.1415 83.2916C48.7579 83.2916 49.3401 82.932 49.7854 82.4696C50.3676 81.8874 50.7615 81.1168 50.7443 80.6374V80.312L50.6416 50.3104L78.0917 30.9943C78.4684 30.7716 78.7938 30.4976 79.0164 30.138C79.2562 29.7784 79.3931 29.3161 79.3931 28.7167C79.3931 28.1174 79.0335 27.4838 78.5369 26.9872C78.0232 26.4563 77.3382 26.0967 76.7731 26.0967C75.8142 26.0967 75.5745 26.3022 75.1635 26.6447L75.095 26.6961L45.4187 47.5876Z" fill="#5C7EF4"/>
</svg>
