<svg width="296" height="399" viewBox="0 0 296 399" fill="none" xmlns="http://www.w3.org/2000/svg">
<g opacity="0.05">
<path d="M25.0366 238.4V112.85L153.493 22.8174C155.337 21.7797 156.941 20.2632 157.983 18.3477C159.025 16.5917 159.667 14.4367 159.667 12.2018C159.667 8.84956 158.304 5.81656 156.059 3.58171C153.813 1.34686 150.766 -0.0100098 147.399 -0.0100098C145.955 -0.0100098 144.512 0.229438 143.149 0.708334C141.866 1.18723 140.583 1.90557 139.54 2.86336L0.5 100.239V238.4C0.5 244.466 1.38203 250.931 2.98573 257.476C4.58943 264.261 6.99497 271.205 10.042 278.149C13.0088 285.013 16.6973 291.797 20.8669 298.422C25.0366 304.967 29.6873 311.272 34.7389 317.258C35.9417 318.535 37.0643 319.892 38.2671 321.169C39.3896 322.367 40.5924 323.644 41.8754 324.921C42.998 326.118 44.2809 327.395 45.6441 328.672C46.8468 329.79 48.0496 330.907 49.2524 332.024L49.6533 332.344C67.6949 345.194 84.2931 356.847 101.292 368.82C112.679 376.801 124.305 385.022 139.059 395.478C140.182 396.595 141.545 397.473 142.988 398.032C144.432 398.671 146.035 398.99 147.639 398.99C149.323 398.99 150.927 398.671 152.37 398.032C153.813 397.473 155.177 396.595 156.219 395.478L235.121 340.405C243.139 334.818 250.757 327.874 257.733 320.132C264.95 312.07 271.445 303.131 276.817 293.952C282.35 284.454 286.84 274.717 289.887 265.139C292.854 255.88 294.458 246.781 294.458 238.4L295.5 68.1528C295.5 64.162 293.977 60.6501 291.651 58.1758C289.246 55.6217 285.958 54.185 282.27 54.1052H282.189C280.505 54.1052 278.982 54.4245 277.458 54.9832C276.015 55.6217 274.572 56.4199 273.289 57.5373L135.371 155.791V324.282C135.371 327.714 136.814 330.747 138.979 332.982C141.224 335.217 144.271 336.574 147.639 336.574C151.087 336.574 154.134 335.217 156.379 332.982C158.544 330.747 159.907 327.714 159.907 324.282V168.402L269.921 91.3793V238.4C269.921 244.626 268.638 251.49 266.233 258.674C263.827 266.176 260.219 273.918 255.728 281.581C251.158 289.403 245.785 296.826 239.772 303.61C233.998 310.075 227.664 315.822 221.088 320.371L147.719 371.773L65.129 313.347C64.0866 312.39 63.0442 311.432 62.082 310.554C61.1197 309.676 60.1575 308.718 59.2755 307.84C58.3133 306.803 57.2709 305.765 56.3086 304.647C55.2662 303.53 54.304 302.413 53.3418 301.295C49.092 296.347 45.163 290.999 41.6348 285.332C38.1067 279.905 34.9795 273.998 32.4937 268.251C30.0882 262.904 28.1638 257.556 26.961 252.368C25.678 247.499 25.0366 242.79 25.0366 238.4Z" fill="white"/>
<path d="M68.0155 128.574L68.4164 283.497V284.854H68.657C69.1381 287.568 70.421 289.962 72.3455 291.638C74.5105 293.714 77.4773 294.991 80.7649 294.991C83.6515 294.991 86.3778 293.314 88.4626 291.159C91.1889 288.446 93.0332 284.854 92.953 282.619V281.103L92.4719 141.265L221.008 51.2326C222.772 50.195 224.296 48.918 225.338 47.2418C226.461 45.5657 227.102 43.4107 227.102 40.6171C227.102 37.8236 225.418 34.8704 223.093 32.5557C220.687 30.0814 217.48 28.4053 214.834 28.4053C210.344 28.4053 209.221 29.3631 207.297 30.9594L206.976 31.1988L68.0155 128.574Z" fill="white"/>
</g>
</svg>
