<svg width="148" height="50" viewBox="0 0 148 50" fill="none" xmlns="http://www.w3.org/2000/svg">
<g clip-path="url(#clip0_16_1325)">
<path d="M3.06 29.875V14.145L19.08 2.865C19.31 2.735 19.51 2.545 19.64 2.305C19.77 2.085 19.85 1.815 19.85 1.535C19.85 1.115 19.68 0.735005 19.4 0.455005C19.12 0.175005 18.74 0.00500488 18.32 0.00500488C18.14 0.00500488 17.96 0.0350049 17.79 0.0950049C17.63 0.155005 17.47 0.245005 17.34 0.365005L0 12.565V29.875C0 30.635 0.11 31.445 0.31 32.265C0.51 33.115 0.81 33.985 1.19 34.855C1.56 35.715 2.02 36.565 2.54 37.395C3.06 38.215 3.64 39.005 4.27 39.755C4.42 39.915 4.56 40.085 4.71 40.245C4.85 40.395 5 40.555 5.16 40.715C5.3 40.865 5.46 41.025 5.63 41.185C5.78 41.325 5.93 41.465 6.08 41.605L6.13 41.645C8.38 43.255 10.45 44.715 12.57 46.215C13.99 47.215 15.44 48.245 17.28 49.555C17.42 49.695 17.59 49.805 17.77 49.875C17.95 49.955 18.15 49.995 18.35 49.995C18.56 49.995 18.76 49.955 18.94 49.875C19.12 49.805 19.29 49.695 19.42 49.555L29.26 42.655C30.26 41.955 31.21 41.085 32.08 40.115C32.98 39.105 33.79 37.985 34.46 36.835C35.15 35.645 35.71 34.425 36.09 33.225C36.46 32.065 36.66 30.925 36.66 29.875L36.79 8.545C36.79 8.045 36.6 7.605 36.31 7.295C36.01 6.975 35.6 6.79501 35.14 6.78501H35.13C34.92 6.78501 34.73 6.825 34.54 6.895C34.36 6.975 34.18 7.07501 34.02 7.215L16.82 19.525V40.635C16.82 41.065 17 41.445 17.27 41.725C17.55 42.005 17.93 42.175 18.35 42.175C18.78 42.175 19.16 42.005 19.44 41.725C19.71 41.445 19.88 41.065 19.88 40.635V21.105L33.6 11.455V29.875C33.6 30.655 33.44 31.515 33.14 32.415C32.84 33.355 32.39 34.325 31.83 35.285C31.26 36.265 30.59 37.195 29.84 38.045C29.12 38.855 28.33 39.575 27.51 40.145L18.36 46.585L8.06 39.265C7.93 39.145 7.8 39.025 7.68 38.915C7.56 38.805 7.44 38.685 7.33 38.575C7.21 38.445 7.08 38.315 6.96 38.175C6.83 38.035 6.71 37.895 6.59 37.755C6.06 37.135 5.57 36.465 5.13 35.755C4.69 35.075 4.3 34.335 3.99 33.615C3.69 32.945 3.45 32.275 3.3 31.625C3.14 31.015 3.06 30.425 3.06 29.875Z" fill="#5C7EF4"/>
<path d="M8.41998 16.115L8.46998 35.525V35.695H8.49998C8.55998 36.035 8.71998 36.335 8.95998 36.545C9.22998 36.805 9.59998 36.965 10.01 36.965C10.37 36.965 10.71 36.755 10.97 36.485C11.31 36.145 11.54 35.695 11.53 35.415V35.225L11.47 17.705L27.5 6.425C27.72 6.295 27.91 6.135 28.04 5.925C28.18 5.715 28.26 5.445 28.26 5.095C28.26 4.745 28.05 4.375 27.76 4.085C27.46 3.775 27.06 3.565 26.73 3.565C26.17 3.565 26.03 3.685 25.79 3.885L25.75 3.915L8.41998 16.115Z" fill="#5C7EF4"/>
<path d="M77.87 28.425C73.71 28.425 71.25 31.185 71.25 34.795C71.25 38.535 73.65 40.975 77.35 40.975C78.88 40.975 80.15 40.625 80.78 40.305L80.36 38.205C79.79 38.455 79 38.705 77.92 38.705C75.78 38.705 74.15 37.225 74.15 34.665C74.13 32.425 75.55 30.645 77.92 30.645C79.03 30.645 79.79 30.885 80.26 31.145L80.82 28.985C80.15 28.645 79.03 28.425 77.87 28.425Z" fill="black"/>
<path d="M60.4 38.035C60.5 36.325 60.58 35.065 60.58 33.135V28.665H57.88V40.695H61.25C62.33 38.705 63.49 36.495 64.47 34.695C65.06 33.515 65.48 32.645 66.13 31.185H66.2C66.1 33.385 66.04 34.295 66.04 36.235V40.695H68.75V28.665H65.31L62.23 34.445C61.52 35.735 61.17 36.595 60.5 38.035H60.4Z" fill="black"/>
<path d="M55.6 40.305L55.18 38.205C54.62 38.455 53.84 38.705 52.75 38.705C50.6 38.705 48.98 37.225 48.98 34.665C48.96 32.425 50.38 30.645 52.75 30.645C53.86 30.645 54.62 30.885 55.09 31.145L55.66 28.985C54.99 28.645 53.86 28.425 52.7 28.425C48.53 28.425 46.07 31.185 46.07 34.795C46.07 38.535 48.49 40.975 52.18 40.975C53.71 40.975 54.99 40.625 55.6 40.305Z" fill="black"/>
<path d="M81.71 30.885H85.33V40.695H88.16V30.885H91.78V28.665H81.71V30.885Z" fill="black"/>
<path d="M92.92 34.895C92.92 38.545 95.21 40.975 99.02 40.975C100.8 40.975 102.22 40.655 103.19 40.205C103.04 39.535 102.91 38.895 102.75 38.255C101.86 38.545 100.87 38.795 99.42 38.795C97.44 38.795 95.72 37.785 95.65 35.465H103.77C103.83 35.215 103.85 34.765 103.85 34.225C103.85 31.675 102.64 28.415 98.75 28.415C94.96 28.415 92.92 31.505 92.92 34.895ZM101.14 33.455H95.65C95.79 32.145 96.61 30.395 98.55 30.395C100.62 30.395 101.14 32.205 101.14 33.385V33.455Z" fill="black"/>
<path d="M108.83 31.145C109.12 32.245 109.59 33.975 109.93 35.145L111.77 40.595H113.83L115.82 35.015C116.45 33.135 116.73 32.395 117.1 31.115H117.18C117.2 32.545 117.27 34.175 117.32 35.365L117.59 40.695H120.25L119.44 28.665H115.84L114.22 33.515C113.8 34.745 113.26 36.395 112.98 37.265H112.96C112.66 36.245 112.22 34.895 111.98 34.075L110.18 28.665H106.61L105.75 40.695H108.33L108.58 35.405C108.65 34.225 108.72 32.595 108.72 31.135H108.83V31.145Z" fill="black"/>
<path d="M122.91 28.665V40.695H125.74V35.565H130.62V40.695H133.45V28.665H130.62V33.335H125.74V28.665H122.91Z" fill="black"/>
<path d="M135.96 34.765C135.96 38.675 138.57 41.005 141.9 41.005H141.92C144.9 41.005 148 39.025 148 34.575C148 30.915 145.67 28.425 142.12 28.425C138.55 28.425 135.96 30.815 135.96 34.765ZM138.89 34.695C138.89 32.645 139.8 30.485 142.02 30.485C144.21 30.485 145.07 32.745 145.07 34.645C145.07 37.165 143.8 38.895 141.99 38.895H141.98C140.1 38.895 138.89 37.115 138.89 34.695Z" fill="black"/>
<path d="M46.07 21.935C46.84 22.025 48.08 22.155 49.74 22.155C52.71 22.155 54.67 21.635 55.83 20.595C56.8 19.795 57.4 18.635 57.4 17.175C57.4 14.845 55.74 13.485 54 13.035V12.955C55.81 12.315 56.83 10.905 56.83 9.36501C56.83 7.95501 56.13 6.86501 55.14 6.24501C54.07 5.47501 52.64 5.15501 50.41 5.15501C48.75 5.15501 47.04 5.30501 46.07 5.52501V21.935ZM48.9 7.40501C49.24 7.33501 49.76 7.25501 50.68 7.25501C52.66 7.25501 53.93 7.97501 53.93 9.66501C53.93 11.125 52.71 12.165 50.56 12.165H48.9V7.40501ZM48.9 14.245H50.48C52.64 14.245 54.42 15.065 54.42 17.075C54.42 19.225 52.61 19.975 50.56 19.975C49.86 19.975 49.32 19.975 48.9 19.925V14.245ZM68.47 19.475C67.9 19.725 67.11 19.975 66.02 19.975C63.86 19.975 62.23 18.485 62.23 15.935C62.2 13.675 63.64 11.895 66.02 11.895C67.14 11.895 67.9 12.145 68.37 12.385L68.94 10.235C68.28 9.88501 67.14 9.66501 65.97 9.66501C61.78 9.66501 59.3 12.435 59.3 16.055C59.3 19.795 61.73 22.255 65.45 22.255C66.99 22.255 68.28 21.905 68.9 21.585L68.47 19.475ZM81.34 16.725C81.39 16.475 81.41 16.035 81.41 15.485C81.41 12.935 80.19 9.66501 76.28 9.66501C72.46 9.66501 70.41 12.765 70.41 16.155C70.41 19.825 72.71 22.255 76.55 22.255C78.34 22.255 79.77 21.935 80.74 21.485C80.59 20.815 80.47 20.175 80.29 19.525C79.4 19.825 78.41 20.075 76.95 20.075C74.97 20.075 73.23 19.055 73.16 16.725H81.34ZM73.16 14.715C73.31 13.405 74.12 11.645 76.08 11.645C78.16 11.645 78.68 13.455 78.68 14.645V14.715H73.16ZM78.76 7.97501C79.58 7.97501 80.19 7.33501 80.19 6.49501C80.19 5.67501 79.55 5.07501 78.76 5.07501C77.92 5.07501 77.27 5.69501 77.27 6.49501C77.27 7.33501 77.89 7.97501 78.71 7.97501H78.76ZM73.9 7.97501C74.74 7.97501 75.31 7.33501 75.31 6.49501C75.31 5.67501 74.72 5.07501 73.95 5.07501C73.06 5.07501 72.44 5.69501 72.44 6.49501C72.44 7.33501 73.03 7.97501 73.88 7.97501H73.9Z" fill="#2B2B2A"/>
</g>
<defs>
<clipPath id="clip0_16_1325">
<rect width="148" height="50" fill="white"/>
</clipPath>
</defs>
</svg>
