<svg width="60" height="61" viewBox="0 0 60 61" fill="none" xmlns="http://www.w3.org/2000/svg">
<path d="M17.5034 20.982H10.005C7.25563 20.982 5.00613 18.7325 5.00613 15.9831V10.9842C5.00613 8.23485 7.25563 5.98535 10.005 5.98535H17.5034C20.2527 5.98535 22.5022 8.23485 22.5022 10.9842V15.9831C22.5022 18.7325 20.2527 20.982 17.5034 20.982Z" fill="white"/>
<path d="M51.9947 18.4826H42.9967C41.3471 18.4826 39.9974 17.1329 39.9974 15.4833V11.4842C39.9974 9.83456 41.3471 8.48486 42.9967 8.48486H51.9947C53.6443 8.48486 54.994 9.83456 54.994 11.4842V15.4833C54.994 17.1329 53.6443 18.4826 51.9947 18.4826Z" fill="white"/>
<path d="M51.9947 37.2287H42.9967C41.3471 37.2287 39.9974 35.879 39.9974 34.2294V30.2303C39.9974 28.5807 41.3471 27.231 42.9967 27.231H51.9947C53.6443 27.231 54.994 28.5807 54.994 30.2303V34.2294C54.994 35.879 53.6443 37.2287 51.9947 37.2287Z" fill="white"/>
<path opacity="0.25" d="M39.9979 34.1041C41.0227 34.1041 41.8725 33.2543 41.8725 32.2295C41.8725 31.2048 41.0227 30.355 39.9979 30.355H33.1244V15.3583H39.9979C41.0227 15.3583 41.8725 14.5085 41.8725 13.4837C41.8725 12.4589 41.0227 11.6091 39.9979 11.6091H22.5018C21.477 11.6091 20.6272 12.4589 20.6272 13.4837C20.6272 14.5085 21.477 15.3583 22.5018 15.3583H29.3753V45.9765C29.3753 49.7756 32.4496 52.85 36.2488 52.85H39.9979C41.0227 52.85 41.8725 52.0002 41.8725 50.9754C41.8725 49.9506 41.0227 49.1008 39.9979 49.1008H36.2488C34.5241 49.1008 33.1244 47.7011 33.1244 45.9765V34.1041H39.9979Z" fill="white"/>
<path d="M51.9947 55.9743H42.9967C41.3471 55.9743 39.9974 54.6246 39.9974 52.975V48.9759C39.9974 47.3263 41.3471 45.9766 42.9967 45.9766H51.9947C53.6443 45.9766 54.994 47.3263 54.994 48.9759V52.975C54.994 54.6246 53.6443 55.9743 51.9947 55.9743Z" fill="white"/>
</svg>
