<svg width="501" height="501" viewBox="0 0 501 501" fill="none" xmlns="http://www.w3.org/2000/svg">
<rect x="0.779541" y="0.603241" width="500" height="500" rx="83.7381" fill="white"/>
<path d="M145.288 284.316V176.906L254.678 99.8828C256.248 98.9952 257.614 97.6978 258.501 96.059C259.389 94.5567 259.935 92.7131 259.935 90.8012C259.935 87.9333 258.775 85.3385 256.863 83.4266C254.951 81.5146 252.356 80.3538 249.488 80.3538C248.259 80.3538 247.03 80.5587 245.869 80.9684C244.777 81.3781 243.684 81.9926 242.796 82.812L124.393 166.118V284.316C124.393 289.506 125.144 295.036 126.51 300.636C127.876 306.44 129.924 312.38 132.519 318.321C135.045 324.193 138.186 329.998 141.737 335.665C145.288 341.264 149.248 346.659 153.55 351.78C154.574 352.872 155.53 354.033 156.555 355.126C157.51 356.15 158.535 357.243 159.627 358.335C160.583 359.359 161.676 360.452 162.837 361.544C163.861 362.5 164.885 363.456 165.909 364.412L166.251 364.685C181.614 375.679 195.749 385.648 210.225 395.891C219.921 402.719 229.822 409.752 242.387 418.698C243.343 419.654 244.503 420.405 245.733 420.883C246.962 421.429 248.327 421.702 249.693 421.702C251.127 421.702 252.493 421.429 253.722 420.883C254.951 420.405 256.112 419.654 256.999 418.698L324.19 371.582C331.018 366.802 337.505 360.862 343.446 354.238C349.591 347.342 355.122 339.694 359.697 331.841C364.409 323.716 368.233 315.385 370.828 307.191C373.354 299.27 374.72 291.486 374.72 284.316L375.607 138.668C375.607 135.254 374.31 132.249 372.33 130.132C370.281 127.947 367.482 126.718 364.341 126.65H364.272C362.838 126.65 361.541 126.923 360.244 127.401C359.015 127.947 357.785 128.63 356.693 129.586L239.246 213.643V357.789C239.246 360.725 240.475 363.32 242.318 365.232C244.23 367.144 246.825 368.304 249.693 368.304C252.629 368.304 255.224 367.144 257.136 365.232C258.979 363.32 260.14 360.725 260.14 357.789V224.432L353.825 158.538V284.316C353.825 289.642 352.732 295.514 350.684 301.66C348.635 308.079 345.563 314.702 341.739 321.257C337.847 327.949 333.272 334.299 328.15 340.104C323.234 345.634 317.84 350.551 312.24 354.443L249.761 398.417L179.429 348.434C178.542 347.615 177.654 346.795 176.835 346.044C176.015 345.293 175.196 344.474 174.445 343.723C173.625 342.835 172.738 341.947 171.918 340.991C171.031 340.035 170.211 339.079 169.392 338.123C165.773 333.89 162.427 329.315 159.422 324.467C156.418 319.823 153.755 314.77 151.638 309.854C149.59 305.279 147.951 300.704 146.927 296.266C145.834 292.1 145.288 288.072 145.288 284.316Z" fill="#5C7EF4"/>
<path d="M181.888 190.36L182.229 322.898V324.059H182.434C182.844 326.381 183.936 328.429 185.575 329.863C187.419 331.638 189.945 332.731 192.745 332.731C195.203 332.731 197.525 331.297 199.3 329.453C201.622 327.132 203.192 324.059 203.124 322.147V320.85L202.714 201.217L312.172 124.194C313.674 123.306 314.972 122.214 315.86 120.78C316.816 119.346 317.362 117.502 317.362 115.112C317.362 112.722 315.928 110.196 313.948 108.215C311.899 106.099 309.168 104.665 306.914 104.665C303.091 104.665 302.135 105.484 300.496 106.85L300.223 107.055L181.888 190.36Z" fill="#5C7EF4"/>
</svg>
