<svg width="38" height="50" viewBox="0 0 38 50" fill="none" xmlns="http://www.w3.org/2000/svg">
<path d="M3.66501 29.87V14.14L19.685 2.86C19.915 2.73 20.115 2.54 20.245 2.3C20.375 2.08 20.455 1.81 20.455 1.53C20.455 1.11 20.285 0.73 20.005 0.45C19.725 0.17 19.345 0 18.925 0C18.745 0 18.565 0.03 18.395 0.09C18.235 0.15 18.075 0.24 17.945 0.36L0.605011 12.56V29.87C0.605011 30.63 0.715011 31.44 0.915011 32.26C1.11501 33.11 1.41501 33.98 1.79501 34.85C2.16501 35.71 2.62501 36.56 3.14501 37.39C3.66501 38.21 4.24501 39 4.87501 39.75C5.02501 39.91 5.16501 40.08 5.31501 40.24C5.45501 40.39 5.60501 40.55 5.76501 40.71C5.90501 40.86 6.06501 41.02 6.23501 41.18C6.38501 41.32 6.53501 41.46 6.68501 41.6L6.73501 41.64C8.98501 43.25 11.055 44.71 13.175 46.21C14.595 47.21 16.045 48.24 17.885 49.55C18.025 49.69 18.195 49.8 18.375 49.87C18.555 49.95 18.755 49.99 18.955 49.99C19.165 49.99 19.365 49.95 19.545 49.87C19.725 49.8 19.895 49.69 20.025 49.55L29.865 42.65C30.865 41.95 31.815 41.08 32.685 40.11C33.585 39.1 34.395 37.98 35.065 36.83C35.755 35.64 36.315 34.42 36.695 33.22C37.065 32.06 37.265 30.92 37.265 29.87L37.395 8.54C37.395 8.04 37.205 7.6 36.915 7.29C36.615 6.97 36.205 6.79 35.745 6.78H35.735C35.525 6.78 35.335 6.82 35.145 6.89C34.965 6.97 34.785 7.07 34.625 7.21L17.425 19.52V40.63C17.425 41.06 17.605 41.44 17.875 41.72C18.155 42 18.535 42.17 18.955 42.17C19.385 42.17 19.765 42 20.045 41.72C20.315 41.44 20.485 41.06 20.485 40.63V21.1L34.205 11.45V29.87C34.205 30.65 34.045 31.51 33.745 32.41C33.445 33.35 32.995 34.32 32.435 35.28C31.865 36.26 31.195 37.19 30.445 38.04C29.725 38.85 28.935 39.57 28.115 40.14L18.965 46.58L8.66501 39.26C8.53501 39.14 8.40501 39.02 8.28501 38.91C8.16501 38.8 8.04501 38.68 7.93501 38.57C7.81501 38.44 7.68501 38.31 7.56501 38.17C7.43501 38.03 7.31501 37.89 7.19501 37.75C6.66501 37.13 6.17501 36.46 5.73501 35.75C5.29501 35.07 4.90501 34.33 4.59501 33.61C4.29501 32.94 4.05501 32.27 3.90501 31.62C3.74501 31.01 3.66501 30.42 3.66501 29.87Z" fill="#5C7EF4"/>
<path d="M9.02493 16.11L9.07493 35.52V35.69H9.10493C9.16493 36.03 9.32493 36.33 9.56493 36.54C9.83493 36.8 10.2049 36.96 10.6149 36.96C10.9749 36.96 11.3149 36.75 11.5749 36.48C11.9149 36.14 12.1449 35.69 12.1349 35.41V35.22L12.0749 17.7L28.1049 6.42C28.3249 6.29 28.5149 6.13 28.6449 5.92C28.7849 5.71 28.8649 5.44 28.8649 5.09C28.8649 4.74 28.6549 4.37 28.3649 4.08C28.0649 3.77 27.6649 3.56 27.3349 3.56C26.7749 3.56 26.6349 3.68 26.3949 3.88L26.3549 3.91L9.02493 16.11Z" fill="#5C7EF4"/>
</svg>
