<svg width="60" height="61" viewBox="0 0 60 61" fill="none" xmlns="http://www.w3.org/2000/svg">
<path opacity="0.25" d="M4.37067 25.9822V35.98C4.37067 43.0494 4.37067 46.5842 6.56688 48.7804C7.11011 49.3236 7.73522 49.7325 8.47545 50.0401C8.45866 49.9289 8.44281 49.8174 8.42779 49.706C8.11948 47.4127 8.11963 44.5491 8.11983 41.2254V20.9831V20.7363C8.11963 17.4127 8.11948 14.549 8.42779 12.2558C8.44279 12.1443 8.45863 12.033 8.4754 11.9219C7.73519 12.2296 7.11008 12.6385 6.56688 13.1817C4.37067 15.3779 4.37067 18.9126 4.37067 25.9822Z" fill="white"/>
<path opacity="0.25" d="M54.3594 25.9822V35.98C54.3594 43.0494 54.3594 46.5842 52.1632 48.7804C51.62 49.3236 50.9949 49.7325 50.2546 50.0401C50.2713 49.9289 50.2873 49.8174 50.3023 49.706C50.6105 47.4127 50.6105 44.5491 50.6102 41.2254V20.7363C50.6105 17.4127 50.6105 14.549 50.3023 12.2558C50.2873 12.1443 50.2713 12.033 50.2546 11.9219C50.9949 12.2296 51.62 12.6385 52.1632 13.1817C54.3594 15.3779 54.3594 18.9126 54.3594 25.9822Z" fill="white"/>
<path fill-rule="evenodd" clip-rule="evenodd" d="M14.065 8.18156C11.8688 10.3778 11.8688 13.9125 11.8688 20.982V40.9776C11.8688 48.047 11.8688 51.5817 14.065 53.778C16.2612 55.9742 19.7959 55.9742 26.8654 55.9742H31.8643C38.9338 55.9742 42.4685 55.9742 44.6647 53.778C46.861 51.5817 46.861 48.047 46.861 40.9776V20.982C46.861 13.9125 46.861 10.3778 44.6647 8.18156C42.4685 5.98535 38.9338 5.98535 31.8643 5.98535H26.8654C19.7959 5.98535 16.2612 5.98535 14.065 8.18156ZM19.992 43.477C19.992 42.4417 20.8313 41.6024 21.8665 41.6024H29.3649C30.4002 41.6024 31.2395 42.4417 31.2395 43.477C31.2395 44.5123 30.4002 45.3516 29.3649 45.3516H21.8665C20.8313 45.3516 19.992 44.5123 19.992 43.477ZM21.8665 31.6046C20.8313 31.6046 19.992 32.444 19.992 33.4792C19.992 34.5145 20.8313 35.3538 21.8665 35.3538H36.8632C37.8985 35.3538 38.7378 34.5145 38.7378 33.4792C38.7378 32.444 37.8985 31.6046 36.8632 31.6046H21.8665ZM19.992 23.4815C19.992 22.4462 20.8313 21.6069 21.8665 21.6069H36.8632C37.8985 21.6069 38.7378 22.4462 38.7378 23.4815C38.7378 24.5168 37.8985 25.356 36.8632 25.356H21.8665C20.8313 25.356 19.992 24.5168 19.992 23.4815Z" fill="white"/>
</svg>
