<svg width="60" height="61" viewBox="0 0 60 61" fill="none" xmlns="http://www.w3.org/2000/svg">
<path d="M3.00623 28.5805C3.00623 25.221 3.00623 23.5412 3.66005 22.258C4.23514 21.1293 5.15282 20.2116 6.28156 19.6365C7.56473 18.9827 9.24454 18.9827 12.6041 18.9827H16.5068C18.1592 18.9827 18.9854 18.9827 19.7511 19.1887C20.4294 19.3712 21.0706 19.6714 21.645 20.0757C22.2934 20.532 22.8222 21.1667 23.8801 22.4361L28.5006 27.9807H35.399C38.7586 27.9807 40.4385 27.9807 41.7216 28.6345C42.8503 29.2095 43.7681 30.1273 44.343 31.2559C44.9969 32.5391 44.9969 34.219 44.9969 37.5785V45.3768C44.9969 48.7363 44.9969 50.4163 44.343 51.6994C43.7681 52.828 42.8503 53.7458 41.7216 54.3208C40.4385 54.9747 38.7586 54.9747 35.399 54.9747H12.6041C9.24454 54.9747 7.56473 54.9747 6.28156 54.3208C5.15282 53.7458 4.23514 52.828 3.66005 51.6994C3.00623 50.4163 3.00623 48.7363 3.00623 45.3768V28.5805Z" fill="white" fill-opacity="0.24"/>
<path d="M10.5043 18.4826C10.5043 14.9831 10.5043 13.2333 11.2048 11.8967C11.821 10.7209 12.8042 9.76498 14.0136 9.16593C15.3884 8.48486 17.1882 8.48486 20.7877 8.48486H24.9692C26.7396 8.48486 27.6249 8.48486 28.4453 8.69944C29.1719 8.88955 29.859 9.2023 30.4744 9.62345C31.1691 10.0988 31.7357 10.7599 32.8691 12.0822L37.8196 17.8578H45.2108C48.8104 17.8578 50.6103 17.8578 51.985 18.5388C53.1943 19.1379 54.1777 20.0938 54.7937 21.2696C55.4943 22.6062 55.4943 24.356 55.4943 27.8556V35.9787C55.4943 39.4783 55.4943 41.2282 54.7937 42.5648C54.1777 43.7405 53.1943 44.6965 51.985 45.2954C50.6103 45.9765 48.8104 45.9765 45.2108 45.9765H20.7877C17.1882 45.9765 15.3884 45.9765 14.0136 45.2954C12.8042 44.6965 11.821 43.7405 11.2048 42.5648C10.5043 41.2282 10.5043 39.4783 10.5043 35.9787V18.4826Z" fill="white"/>
</svg>
